<svg xmlns="http://www.w3.org/2000/svg" width="266.893" height="266.895" viewBox="0 0 266.893 266.895"><path fill="#fff" d="M182.41 262.307v-99.803h33.498l5.016-38.895H182.41V98.774c0-11.26 3.126-18.935 19.274-18.935l20.596-.01V45.047c-3.562-.474-15.788-1.533-30.012-1.533-29.695 0-50.025 18.126-50.025 51.413v28.684h-33.585v38.895h33.585v99.803h40.166z"/><path d="M142.316 211.974v-49.58H108.73V124.01h33.586l.022-14.195c.028-18.29.92-27.147 3.513-34.872 3.97-11.825 11.05-20.113 21.658-25.365 10.03-4.966 15.484-5.79 34.786-5.247 9.016.256 17.203.697 18.192.98 1.792.518 1.8.59 1.8 17.12v16.6l-13.795.37c-17.68.476-21.38 1.83-24.685 9.026-1.27 2.764-1.47 5.397-1.486 19.392l-.02 16.193h19.247c17.947 0 19.22.095 18.85 1.4-.217.77-1.388 9.406-2.602 19.19l-2.207 17.795H182.3v99.16h-39.984v-49.58z" fill="#fff" stroke="#fff" stroke-width=".8"/><path d="M142.316 211.974v-49.58H108.73V124.01h33.586l.007-14.994c.004-8.247.364-18.108.8-21.914 2.357-20.57 12.597-33.965 30.92-40.446 6.172-2.184 6.516-2.214 25.05-2.18 10.336.02 19.783.296 20.992.615l2.2.584V78.98l-13.093.536c-15.5.636-20.364 1.798-23.226 5.55-2.962 3.884-3.625 8.308-3.646 24.35l-.02 14.593h38.525l-.488 2.996c-.766 4.707-4.45 33.106-4.45 34.307 0 .87-3.234 1.08-16.793 1.08H182.3v99.158h-39.982v-49.58z" fill="#fff" stroke="#fff" stroke-width=".8"/></svg>