<svg id="Layer_1" xmlns="http://www.w3.org/2000/svg" viewBox="0 0 150 150"><style>.st0{fill:#80c249}</style><path class="st0" d="M139.9 60.2c-.2-2.5-1.6-4.4-4.4-5.6-9.9-4.5-20-9.3-30.8-14.5-8.5-4.1-17.3-8.3-26.4-12.5-2-.9-4-.9-6 .1L69.7 29c-12.8 6.5-26 13.3-39.8 19.8-5.2 2.5-10.3 4.9-15.2 7.1l-.2.1c-1.3.6-4.6 2-4 5.1.3 1.8 2.1 3.2 3.6 3.8 5.9 2.5 12.6 5.6 19.8 9 .1.1.2.1.3.1v.2c0 5.1.5 13.3 1 17.8.3 3.3.7 6.7 1.2 10.1.4 2.6 1.8 4.5 4.3 5.6 4.9 2.2 9.7 4.4 14.4 6.6 3.4 1.6 6.6 3.1 9.9 4.7 2.9 1.4 5.7 2.7 8.4 4 .6.3 1.4.5 2.2.5h.2c.7 0 1.4-.1 2-.4 5.2-2.1 10.6-4.3 15.1-6.2l5.5-2.3c4.1-1.7 8.4-3.5 12.6-5.3 3.1-1.3 4.8-3.4 5.2-6.6 1-6.3 1.9-15.9 2.2-21.9.2-2.9.2-5.9.3-8.7 0-1 0-3.9-2.3-5.4-2.3-1.5-5.2-.5-6.1-.1-2.8 1-5.5 2-8.3 3-8.5 3.1-17.5 6.6-25.2 9.5-.6.2-.9.2-1.5 0-1.4-.6-1.7-.7-1.8-.8-.1-.1-.1-.1-.6-.3l-7.8-3.2C60 73 57.9 76 57.3 77c-.9 1.6-.7 2.9-.3 3.8.5 1.4 1.8 2.6 3.7 3.3l4.5 1.9c3.2 1.3 3.2 1.3 7 2.9l.7.3c1.6.6 3.6.7 5.3.1 5.3-1.8 10.6-3.8 16-5.7l7.4-2.6c2.1-.8 4.3-1.5 6.4-2.3v.8c-.2 5.6-.9 15-1.7 21.4-10.3 4.2-20.9 8.5-30.6 12.2h-.3c-2.8-1.2-5.6-2.5-8.5-3.8l-5.4-2.4c-4.5-2-9.7-4.3-15.3-6.7-.8-8.1-1.4-19.5-1.5-25.4v-1.6c0-4.4-.6-5.3-4.8-7.3L37 64.6c-3.3-1.6-6.5-3.1-9.6-4.5l2.1-.9c12.4-5.6 25-11.7 37.1-17.5l8.7-4.2h.2c7.8 3.4 15.9 7.1 24.8 11.3l1.7.8c9 4.1 18.3 8.4 27.5 12.5.3 6.3.2 12.7-.2 18.8v.4c0 .5-.1 1-.1 1.5l-.4 4.5c-.2 1.8.5 3.4 1.9 4.2 1.3.8 2.9.9 4.6.3 1.6-.6 3.6-2 4-5.2 1-10.7 1.2-14.4.6-26.4z"/></svg>