<svg id="Layer_1" xmlns="http://www.w3.org/2000/svg" viewBox="0 0 150 150"><style>.st0{fill:#00ad84}</style><path class="st0" d="M134.7 94.1c-4.3-16.9-14.6-30.7-30.6-40.9-.9-.6-1.3-.9-1.5-1.1.2-3.6-1-6.7-3.7-9.4.1-.2.3-.5.4-.7.8-1.3 1.5-2.6 2.2-3.9 3.7-7.3 5.5-13.3 5.8-19.4.2-4.2-1.5-6.7-5.6-8.3C82.2 3 62.7 5.4 42 18c-1.8 1.1-3.5 2.3-3.6 4.2-.1 1.8 1.2 3.1 3.1 4.7 5.8 4.5 10.4 9.8 13.2 15.3-.3.7-.7 1.4-1 2.1-1 1.9-1.9 3.7-2.1 5.7-.2 1.6-.6 2.2-2 3-16.4 9.9-27 23.3-31.4 39.8-6.2 23.2 3.9 41.8 26.3 48.5 8 2.4 16.4 3.6 26.1 3.6 3 0 6.1-.1 9.4-.3 9.3-.6 18.7-2 28-3.9 9.2-2 16.9-6.8 22.1-14.1 6.4-9 7.8-19.6 4.6-32.5zM93.2 51.3c-12 3.1-23.1 3.1-33.8-.1 0-1.7.3-2.1.5-2.3.2-.1.7-.4 2.7.1 9 2.2 18.2 2.2 28.2-.2l.9-.3c.1 0 .2-.1.4-.1 1 .7 2.1 1.5 2.4 2.3 0 .1.1.1.1.2-.2 0-.6.2-1.4.4zM90.9 40c-.5.7-1.9 1.1-3.1 1.5 0-.6-.1-1.2-.1-1.7-.2-3.2-.4-6.2-.8-9.2-.2-1.4-1.5-2.2-2.6-2.9-.4-.2-.7-.5-1-.7l-1.7-1.4-.8 2c-.1.3-.3.6-.5 1-.5.9-1 1.9-1 3.1-.1 2.6 0 5.3 0 7.8 0 .9 0 1.7.1 2.6 0 .5-.1.7-.1.7s-.2.1-.7.1c-1.7-.1-3.4-.2-5-.3-2.3-.1-4.6-.3-6.9-.5-2.2-.2-3.7-1.3-5.4-4-2.7-4.2-5.8-8.2-8.9-12.1-.9-1.1-1.8-2.3-2.7-3.4 6.1-3.5 13.2-6.1 20.5-7.5 9.5-1.8 18.7-1 27.5 2.2 1.7.6 1.9 1.1 1.7 2.5-1.1 7.1-3.9 13.9-8.5 20.2zm3.5 19c2.2-.6 3.7-.4 5.3.7 15.3 10 24.4 22.7 27.8 38.9 3.4 16.3-3.4 28.3-19.3 33.7-10.6 3.6-21.4 4.4-36.4 4.5-10.8.2-19.9-1.2-27.8-4.2-15.4-5.8-21.3-16.5-18.8-33.4 2.6-17.2 12.5-30.7 29.4-40 .4-.2 1.1-.4 1.7-.4.2 0 .5 0 .6.1 12.1 3.4 24.8 3.5 37.5.1z"/><path class="st0" d="M52.7 89.2c-.5.1-.9.3-1.4.6-1.1.7-1.8 1.8-1.8 3.1s.5 2.5 1.6 3.3c.5.3.9.6 1.4.7 1.3.3 2.5.3 3.8.2v2c-1.3-.1-2.6-.1-3.9.2-.5.1-.9.3-1.4.7-1.1.8-1.7 2.1-1.6 3.5.1 1.3.9 2.5 2.1 3.1l.9.3c1.5.3 3 .2 4.4.2h.6c.2.5.4 1 .5 1.4 3.2 8.7 10.8 14 20 14h1.2c8-.4 15.9-6.9 17.7-14.5.1-.3.1-.7 0-1.1-.2-1.3-1-2.4-2.2-3-1.3-.6-2.8-.5-4 .3-.3.2-.5.4-.7.6-.7.7-1 1.5-1.2 2.3-.1.3-.2.6-.3.8-2.3 4.6-7.7 7.5-12.5 6.7-4.6-.7-8.4-3.7-9.8-7.6H75c1.3 0 3-.1 4.1-1.2.5-.5 1-1.3 1-2.7 0-1.4-.6-2.2-1.1-2.7-1.1-1.1-2.8-1.2-4.1-1.2H64.3v-2h1.9c3 0 5.9.1 8.8-.1h.2c1.2-.1 4.9-.3 4.8-4-.2-3.9-3.8-3.9-5-3.9h-9.4c.2-.6.4-1 .6-1.4 2.8-5 6.9-7.2 12.4-6.7 5 .4 8.4 3.1 10.4 8.2.6 1.4 1.8 4.7 5.4 3.4 3.7-1.3 2.5-4.7 2-6.1-1.7-6-6.3-10.6-12.2-12.6-5.9-2-12.3-1.2-17.6 2.1-4.5 2.9-7.5 7.1-9.2 12.9h-.5c-1.3 0-2.8-.1-4.2.2z"/></svg>