<svg id="Layer_1" xmlns="http://www.w3.org/2000/svg" viewBox="0 0 150 150"><style>.st0{fill:#6745ba}</style><path class="st0" d="M147.8 51.2V35.1c0-1.4-.1-2.8-1.1-3.6-1-.8-2.2-.6-3.4-.3-6 1.5-12 3-18 4.4l-5.8 1.4c-3.4.8-4.2 1.4-4.1 4.3h-3.1c-4.3 0-8.7 0-13-.1-.8 0-1.7-.3-2.7-.8-2-1.1-4-2.2-6-3.4-3.7-2.1-7.5-4.3-11.4-6.1-7.6-3.5-15.4-2.6-22.4 2.6-1.9 1.4-3.7 2-6.3 2.2-4 .2-8 1-11.9 1.7-1.5.3-3 .5-4.6.8-.2-.1-.5-.2-.8-.4-.5-.3-1.1-.6-1.8-.7-4.3-1.1-8.6-2.1-12.9-3.2-3.9-1-7.8-1.9-11.7-2.9-.5-.1-2.3-.5-3.5.4-.7.8-1.3 1.8-1.3 3.2v13.5c0 13.5.3 26.9.3 40.4 0 1.3.5 2.3 1.1 3 .7.7 1.6 1 2.8 1h3.3c1.9 0 3.9 0 5.8-.1 1.1-.1 2.1-.3 3.3-.6.4-.1.9-.2 1.4-.4.1.1.3.1.5.2.8.4 1.8.8 2.5 1.5.2.2.2 1 .3 1.5.1.6.1 1.2.3 1.7.2.8.6 1.6 1.2 2.5 2 3.2 4.9 4.7 8.8 4.4 2 6.3 3.9 7.6 10.7 8.2 2 6.3 3.9 7.7 10.7 8.2.1.2.2.4.2.7.4 1.1.8 2.3 1.5 3.4 1.7 2.7 4.4 4.3 7.4 4.3h.2c3 0 5.7-1.5 7.6-4.2 1.3-1.8 2.5-3.8 3.7-5.7.3-.5.6-.9.9-1.4.3.3.7.5 1 .8 1.5 1.1 2.9 2.2 4.4 3.2 2.6 1.8 5.7 2.1 8.5 1 2.9-1.2 5-3.9 5.8-7.4.1-.3.1-.6.2-.9 2.9.5 5.3.1 7.3-1.3 2-1.4 3.5-3.8 4.2-7 3 .7 5.6.3 7.8-1.1 2.2-1.5 3.7-4 4.5-7.4 2.8.3 5.2-.2 7.1-1.6 1.5-1.1 2.6-2.6 3.5-4.6.9 1.4 2.4 2.1 4.5 1.9 3-.2 6-.1 8.7 0 1.4.1 2.4-.3 3.1-1 1-1 1.1-2.5 1.1-3.5-.4-12.1-.4-24.5-.4-36.6zM87.9 67.3c-.2 0-.4.1-.6.1l-1.5.2.3 1.5c0 .2.1.5.1.8.1.9.2 2 1 2.6 2.6 2.2 5.4 4.3 8 6.3.9.7 1.7 1.3 2.6 2 1.4 1.1 2.8 2.1 4.2 3.2 3.4 2.6 6.9 5.3 10.4 8 1.5 1.2 2 2.8 1.5 4.5-.3 1-1.1 2.5-3 2.5-1 0-2.2-.4-3.2-1.1-5-3.7-10.1-7.6-15-11.4-1.7-1.3-3.4-2.6-5-3.8-.1 0-.1-.1-.2-.1-.3-.3-.7-.7-1.4-.8-.7-.1-1.4-.1-2.1 0h-2.5l.5 1.8c.1.3.1.5.2.8.2.9.4 1.9 1.1 2.6 1.7 1.5 3.6 2.9 5.4 4.2.7.5 1.4 1 2 1.5l2.7 2.1c2.2 1.7 4.5 3.4 6.7 5.1 2.1 1.7 2 3.1 1.8 4.2-.3 1.1-1 2.8-3 2.8-1 0-2.3-.3-3.4-1.1C90.2 102 85 98.1 80 94.2c-1.7-1.3-3.4-2.6-5.2-3.9-.1 0-.1-.1-.2-.1-.3-.3-.7-.7-1.4-.8h-4.6c-.6-.7-1.4-1.4-2.3-1.9-3.6-2.1-7.3-1.6-11 1.4-3.7-5.3-7.2-6.3-12.5-3.7-2.3-3.8-4.8-5.7-7.6-5.9-3.3-.2-6.8 2.3-10.5 7.5l-3.1-1.7 1.5-4.9c1.5-4.8 2.9-9.6 4.4-14.3l1.6-5.4c1.3-4.5 2.7-9.1 4.2-13.6.2-.6.5-1 .6-1.1 4.3-1.9 8.1-3.1 11.9-3.5-1.1.9-2.1 1.8-3.1 2.6-2.8 2.3-3.8 4.9-3.1 7.8.9 3.8 4.2 4.6 5.8 5 3.3.8 6.6.2 10.5-2.1 1.5-.9 2.9-1.9 4.3-2.9 1.1-.8 2.3-1.7 3.5-2.4 1.1-.7 2.3-1.2 3.4-1.3 1-.1 2.1-.1 3.2 0 1.2 0 2.4.1 3.7-.1 3-.4 5.8.5 8.7 2.8 5.5 4.2 11 8.4 16.6 12.6 4 3.1 8.1 6.2 12.1 9.2 4 3 7.9 6.1 11.9 9.1 2.2 1.7 2.8 4 1.6 6-.5.9-1.3 1.4-2.2 1.6-1.1.2-2.3-.2-3.5-1-6.7-5.1-13.3-10.2-20-15.4L91.7 68l-.2-.2c-.3-.3-.8-.8-1.5-.9-.9.2-1.5.3-2.1.4zm-10.1 35.3c-1.6-2.2-3.9-3.8-6.4-4.1-.1 0-.3 0-.4-.1.1-1.2.1-2.3-.1-3.3.9.8 1.8 1.5 2.7 2.2.4.3.9.6 1.3 1l3.8 2.9c3.1 2.4 6.2 4.8 9.4 7.2 2.2 1.7 2.8 4.2 1.5 6.1-.6.8-1.3 1.3-2.2 1.5-1.1.2-2.3-.2-3.4-1-.3-.2-.6-.4-.8-.7-.6-.5-1.1-.9-1.8-1.3-1.8-1.2-2.4-2-2.1-4.2.4-2.1-.1-4.3-1.5-6.2zm-48.6-11c.7-1.5 1.6-3 2.9-4.6 1.1-1.4 2.7-1.5 4.2-.5 1.3.9 2.3 2.7 1.5 4.5-1.9 4.3-3.4 6-5.3 6h-.1c-1.2 0-2.3-.6-2.9-1.7-.7-1.1-.8-2.5-.3-3.7zM40 99.2c.8-1.2 1.5-2.4 2.2-3.6l1.8-3c.9-1.4 1.9-2.2 2.9-2.4h.5c.7 0 1.4.3 2 .8 2.5 2 1.4 4.7.5 6.1l-.9 1.5c-1 1.7-2 3.2-3.1 4.7-.6.7-1.4 1.3-2.1 1.7-.1.1-.3.2-.4.3-2.2-.1-3-.9-3.6-2-.8-1.6-.7-2.8.2-4.1zm10.5 8.4c2.4-4.1 5.1-8.4 8.6-13.5.6-.9 1.4-1.4 2.2-1.5h.4c.7 0 1.5.3 2.1.8 1.7 1.4 2 3.6.9 5.4-2.4 4-5.3 8.6-8.4 13.1-.4.6-1.2 1-2 1.5-.3.2-.6.3-.9.5-1.3-.3-2.5-1.3-3.1-2.6-.5-1.3-.5-2.6.2-3.7zm10.6 8.4c1.6-3 3.6-6.1 6.4-10.1.6-.8 1.3-1.2 2.1-1.4h.4c.7 0 1.5.3 2.1.8 1.6 1.3 2 3.4 1 5.2-2.1 3.7-4.1 6.8-6.2 9.7-.4.5-1.1.9-1.9 1.3-.3.1-.6.3-.9.5-1.3-.3-2.4-1.2-3-2.4-.6-1.2-.6-2.5 0-3.6zm-47-67.8c0-1.1.9-2.2 1.9-2.2 1 0 1.9 1.2 1.9 2.3 0 1.1-1 2.2-1.9 2.2-.4 0-.9-.3-1.3-.7-.4-.4-.7-1.1-.6-1.6zM16 40c-2.1 0-3.8.8-5.2 2.4-1 1.1-1.8 2.5-1.8 4V38l7.8 2H16zM9 50.3C9 54 12.2 57 15.9 57h.1c2 0 3.9-.9 5.4-2.4 1.5-1.6 2.3-3.7 2.4-6.1 0-3.6-1.9-6.7-4.8-7.9l9.5 2.3-7.2 23.6c-1.9 6.1-3.8 12.5-5.7 18.8-.3.9-.3.9-1 .9-1 0-2-.1-3-.1H9.1V50.3zm111.8 22.8C113.6 67.6 106.3 62 99 56.4c-5.6-4.2-11.3-8.2-17.1-12.3-1.4-1-3.1-1.2-4-1.2H66.3c-2-.1-3.7.6-5.6 2.1-2.8 2.2-5.8 4.4-8.9 5.9-1.3.6-3 .6-4.7.6H46c-.1-.1-.3-.2-.4-.4.1-.2.2-.5.4-.5 1.4-1.1 2.8-2.3 4.2-3.5 3.9-3.3 8-6.7 12.3-9.5 4.3-2.8 9.4-3.2 14-1 3.9 1.9 7.8 4.1 11.6 6.2 2.1 1.2 4.3 2.4 6.4 3.6 1 .5 2.5 1.2 4.1 1.2 4.9.1 9.9.1 14.8.1h4.1l9.1 29.9c-2.1-1.6-4-3-5.8-4.5zM141 46.3c0-3.6-2.9-6.3-6.5-6.3H133.3l7.7-2v8.3zm-4.7 2.1c0 1.1-.9 2.1-1.9 2.2-.9 0-1.9-1-2-2.1-.1-1.1.8-2.2 1.8-2.2h.1c.4 0 .8.2 1.2.5.5.4.8 1 .8 1.6zm-7.3-6.1c-1.5 1.6-2.4 3.8-2.4 6.1 0 4.7 3.3 8.6 7.7 8.6 3.7 0 6.6-2.8 6.6-6.5v35.6h-.3c-2 0-3.6 0-5.5-.1-.1-.2-.2-.6-.3-1-3.3-10.8-6.6-21.6-9.8-32.4l-1.4-4.7c-.4-1.4-.8-2.8-1.3-4.3l-.2-.7 9.6-2.4c-1 .4-1.9 1-2.7 1.8z"/></svg>