<svg id="Layer_1" xmlns="http://www.w3.org/2000/svg" viewBox="0 0 100 100"><style>.st0{fill:#81c34b}</style><path class="st0" d="M52.6 40h-1.7c-.5 0-.9.7-.9 1.2V50h-5.7c-.5 0-.3.7-.3 1.2v1.7c0 .5-.2.2.3.2h8.3c.5 0 1.4.3 1.4-.2V41.2c0-.5-.9-1.2-1.4-1.2z"/><path class="st0" d="M50.1 30.4c-11 0-19.9 8.9-19.9 19.9s8.9 19.9 19.9 19.9S70 61.3 70 50.3s-8.9-19.9-19.9-19.9zm0 34.1c-7.8 0-14.1-6.3-14.1-14.1s6.3-14.1 14.1-14.1 14.1 6.3 14.1 14.1-6.3 14.1-14.1 14.1z"/><path class="st0" d="M50.1 2.5C23.7 2.5 2.2 23.9 2.2 50.3s21.5 47.9 47.9 47.9S98 76.7 98 50.3 76.5 2.5 50.1 2.5zm0 92C25.8 94.5 6 74.7 6 50.3S25.8 6.2 50.1 6.2 94.2 26 94.2 50.3 74.4 94.5 50.1 94.5z"/></svg>