<svg xmlns="http://www.w3.org/2000/svg" viewBox="0 0 308 308"><path d="M301 243.537h-11.085v-63.233a7 7 0 0 0-7-7h-49.468v-40.85l6.898 5.735a6.998 6.998 0 0 0 9.857-.908 7 7 0 0 0-.908-9.857L158.66 52.08a7 7 0 0 0-8.938-.009l-91.006 75.343a7 7 0 0 0 4.468 12.392 6.973 6.973 0 0 0 4.46-1.608l6.909-5.72v40.826H25.085a7 7 0 0 0-7 7v63.233H7a7 7 0 1 0 0 14h294a7 7 0 1 0 0-14zm-123.6 0v-8.464c0-12.903-10.497-23.4-23.4-23.4s-23.4 10.498-23.4 23.4v8.464h-7.799v-8.464c0-12.903-10.497-23.4-23.4-23.4S76 222.17 76 235.073v8.464H32.085v-30.188l39.898-26.045h164.034l39.898 26.045v30.188H232v-8.464c0-12.903-10.497-23.4-23.4-23.4s-23.4 10.498-23.4 23.4v8.464h-7.8zm-32.8 0v-8.464c0-5.184 4.217-9.4 9.4-9.4s9.4 4.217 9.4 9.4v8.464h-18.8zm-54.6 0v-8.464c0-5.184 4.217-9.4 9.4-9.4s9.4 4.217 9.4 9.4v8.464H90zm-1.447-116.711h130.894v46.478H88.553v-46.478zm187.362 69.804l-14.286-9.326h14.286v9.326zm-229.544-9.326l-14.286 9.326v-9.326h14.286zm152.828 47.769c0-5.184 4.217-9.4 9.4-9.4s9.4 4.217 9.4 9.4v8.464h-18.801v-8.464zM154.178 66.558l55.659 46.269H98.291l55.887-46.269z"/><path d="M125 138.536a7 7 0 0 0-7 7v9.059a7 7 0 1 0 14 0v-9.059a7 7 0 0 0-7-7zM154 106.134a7 7 0 0 0 7-7v-9.059a7 7 0 1 0-14 0v9.059a7 7 0 0 0 7 7zM183 138.536a7 7 0 0 0-7 7v9.059a7 7 0 1 0 14 0v-9.059a7 7 0 0 0-7-7z"/></svg>