<svg xmlns="http://www.w3.org/2000/svg" viewBox="0 0 316.484 316.484"><path d="M250.813 34.742h-68.949V7a7 7 0 0 0-7-7h-33.242a7 7 0 0 0-7 7v27.742h-68.95c-16.582 0-30.073 13.491-30.073 30.073v93.356c0 16.583 13.491 30.073 30.073 30.073h68.949v121.239a7 7 0 0 0 7 7h33.242a7 7 0 0 0 7-7V188.245h68.949c16.582 0 30.073-13.491 30.073-30.073V64.815c.001-16.582-13.49-30.073-30.072-30.073zm16.073 123.43c0 8.863-7.21 16.073-16.073 16.073H65.672c-8.863 0-16.073-7.21-16.073-16.073V64.815c0-8.863 7.21-16.073 16.073-16.073h185.141c8.863 0 16.073 7.21 16.073 16.073v93.357zM148.621 14h19.242v20.742h-19.242V14zm19.242 288.484h-19.242V188.245h19.242v114.239z"/><path d="M62.562 54.182c-1.84 0-3.649.75-4.949 2.05-1.311 1.3-2.051 3.11-2.051 4.95s.74 3.64 2.051 4.95a7.059 7.059 0 0 0 4.949 2.05c1.841 0 3.641-.75 4.95-2.05 1.3-1.31 2.05-3.11 2.05-4.95s-.75-3.65-2.05-4.95a7.079 7.079 0 0 0-4.95-2.05zM253.922 54.182c-1.84 0-3.65.75-4.95 2.05-1.3 1.3-2.05 3.11-2.05 4.95s.75 3.65 2.05 4.95a7.08 7.08 0 0 0 4.95 2.05c1.85 0 3.65-.75 4.95-2.05 1.31-1.31 2.05-3.11 2.05-4.95s-.74-3.65-2.05-4.95a7.045 7.045 0 0 0-4.95-2.05zM93.571 81.923H78.416a7 7 0 0 0-7 7v51.141a7 7 0 1 0 14 0v-9.16l13.534 14.021a6.979 6.979 0 0 0 5.037 2.139 7 7 0 0 0 5.035-11.861l-13.365-13.846c8.621-1.036 15.329-8.382 15.329-17.277v-4.742c0-9.603-7.812-17.415-17.415-17.415zm3.415 22.156a3.419 3.419 0 0 1-3.415 3.415h-8.155v-11.57h8.155a3.419 3.419 0 0 1 3.415 3.414v4.741zM132.586 95.923h17.428a7 7 0 1 0 0-14h-17.428c-8.35 0-15.143 6.792-15.143 15.142v34.856c0 8.35 6.793 15.143 15.143 15.143h17.428a7 7 0 1 0 0-14h-17.428c-.63 0-1.143-.513-1.143-1.143v-10.428h18.57a7 7 0 1 0 0-14h-18.57V97.065c0-.629.513-1.142 1.143-1.142zM242.068 81.923h-25.57a7 7 0 1 0 0 14h5.785v44.141a7 7 0 1 0 14 0V95.923h5.785a7 7 0 1 0 0-14zM196.041 81.923a7 7 0 0 0-7 7v21.488l-12.31-24.619a6.999 6.999 0 0 0-13.261 3.131v51.141a7 7 0 1 0 14 0v-21.488l12.31 24.619a7 7 0 0 0 13.261-3.131V88.923a7 7 0 0 0-7-7z"/></svg>