<svg xmlns="http://www.w3.org/2000/svg" viewBox="0 0 278.348 278.348"><path d="M252.79 70.826l-48.173-40.117a7 7 0 0 0-8.959 0l-48.174 40.117a7 7 0 0 0-2.521 5.379v195.143a7 7 0 0 0 7 7h96.347a7 7 0 0 0 7-7V76.205a6.995 6.995 0 0 0-2.52-5.379zm-11.479 193.522h-82.347V79.485l41.174-34.288 41.173 34.288v184.863z"/><path d="M151.968 54.117a6.971 6.971 0 0 0 4.476-1.621l43.694-36.387 43.693 36.387a7 7 0 0 0 8.959-10.757L204.617 1.621a7 7 0 0 0-8.959 0l-48.174 40.117a7 7 0 0 0 4.484 12.379zM130.863 151.333L82.69 111.215a7 7 0 0 0-8.959 0l-48.173 40.117a7 7 0 0 0-2.521 5.379v114.636a7 7 0 0 0 7 7h96.347a7 7 0 0 0 7-7V156.712c0-2.079-.924-4.05-2.521-5.379zm-11.479 113.015H37.037V159.991l41.173-34.288 41.174 34.288v104.357z"/><path d="M34.517 133.003L78.21 96.616l43.694 36.387a6.964 6.964 0 0 0 4.476 1.621 7 7 0 0 0 4.484-12.379L82.69 82.128a7 7 0 0 0-8.959 0l-48.173 40.117a7 7 0 0 0-.899 9.858 6.998 6.998 0 0 0 9.858.9zM71.21 166.391v51.9l-3.188-3.188a7 7 0 0 0-9.9 9.899l13.793 13.792c1.735 1.735 4.015 2.602 6.295 2.602s4.561-.868 6.298-2.603l13.791-13.791a7 7 0 0 0-9.9-9.899l-3.188 3.188V166.39a7 7 0 1 0-14.001.001zM193.84 149.149l-13.791 13.791a7 7 0 0 0 9.9 9.899l3.188-3.188v51.901a7 7 0 1 0 14 0v-51.9l3.188 3.188c1.367 1.367 3.159 2.05 4.95 2.05s3.583-.684 4.95-2.05a7 7 0 0 0 0-9.899l-13.793-13.792c-3.47-3.472-9.117-3.471-12.592 0z"/></svg>