<svg id="Layer_1" xmlns="http://www.w3.org/2000/svg" viewBox="0 0 100 100"><style>.st0{fill:#81c34b}</style><path class="st0" d="M52.5 64.2c-3 0-5.7-1.4-7.8-3.6-1.5-1.7-2.6-3.6-3-7.6H58v-2H41v-1c0-.8.3-2 .4-3H58v-2H41.9c.6-3 1.7-5.4 3.3-7 1.9-2 4.3-3.1 7.3-3.1 2.5 0 4.8.7 6.2 1.5l1.1-3.6c-1.6-.8-4.1-1.8-7.4-1.8-4.5 0-8.1 1.7-10.9 4.6-2.2 2.3-3.9 5.4-4.5 9.4h-4v2h3.6c-.1 1 .4 2.3.4 3.2v.8h-4v2h3.7c.5 5 1.9 7.5 4 9.9 2.8 3.2 6.7 5.1 11.2 5.1 3.6 0 6.5-1.1 8.2-2.2l-.9-3.4c-1.3.6-3.8 1.8-6.7 1.8z"/><path class="st0" d="M50.1 2.4C23.7 2.4 2.2 23.9 2.2 50.3s21.5 47.9 47.9 47.9S98 76.7 98 50.3 76.5 2.4 50.1 2.4zm0 92.1C25.8 94.5 6 74.7 6 50.3S25.8 6.2 50.1 6.2 94.2 26 94.2 50.3 74.4 94.5 50.1 94.5z"/></svg>