<svg id="Layer_1" xmlns="http://www.w3.org/2000/svg" viewBox="0 0 100 100"><style>.st0{fill:#81c34b}</style><path class="st0" d="M67 34h-3v-1.3c0-2.1-1.8-3.7-3.9-3.7h-1.5c-2.1 0-3.6 1.6-3.6 3.7V34h-9v-1.3c0-2.1-2.2-3.7-4.4-3.7h-1.5C38 29 36 30.6 36 32.7V34h-2.8c-1.7 0-3.2 2.4-3.2 4v30.7c0 1.7 1.5 3.2 3.2 3.2H67c1.7 0 2-1.5 2-3.2V38c0-1.6-.3-4-2-4zm-6 6.2c0 .4-.3.8-.8.8h-1.5c-.4 0-.8-.3-.8-.8v-7.5c0-.4.3-.8.8-.8h1.5c.4 0 .8.3.8.8v7.5zm-19 0c0 .4-.3.8-.8.8h-1.5c-.4 0-.8-.3-.8-.8v-7.5c0-.4.3-.8.8-.8h1.5c.4 0 .8.3.8.8v7.5zM67 69H33V44h34v25z"/><path class="st0" d="M50.1 2.5C23.7 2.5 2.2 23.9 2.2 50.3s21.5 47.9 47.9 47.9S98 76.7 98 50.3 76.5 2.5 50.1 2.5zm0 92C25.8 94.5 6 74.7 6 50.3S25.8 6.2 50.1 6.2 94.2 26 94.2 50.3 74.4 94.5 50.1 94.5z"/></svg>