<svg id="Layer_1" xmlns="http://www.w3.org/2000/svg" width="512" height="512" viewBox="0 0 512 512"><path fill="#7F7F7F" d="M256.23 0C115.184 0 0 115.184 0 256.23 0 396.81 115.184 512 256.23 512 396.81 512 512 396.81 512 256.23 512 115.184 396.81 0 256.23 0zm-80.272 399.98h-48.073V175.958h48.073V399.98zm-24.036-256.221c-17.686 0-32.2-14.061-32.2-31.747s14.514-32.2 32.2-32.2 32.199 14.514 32.199 32.2-14.514 31.747-32.199 31.747zM399.98 399.98h-48.072V272.088c0-30.832-11.327-48.064-37.637-48.064-26.311 0-58.042 22.224-58.042 48.064V399.98h-48.08V175.958h48.081v32.192c15.857-16.327 39.449-32.192 73.007-32.192 42.621 0 70.742 24.935 70.742 80.272v143.75z"/></svg>