<svg id="Capa_1" xmlns="http://www.w3.org/2000/svg" width="612" height="612" viewBox="0 0 612 612"><path d="M133.572 172.485H17.639c-7.929 0-14.364 6.435-14.364 14.364V592.12c0 7.928 6.435 14.363 14.364 14.363h115.948c7.929 0 14.364-6.436 14.364-14.363V186.85c-.014-7.944-6.435-14.365-14.379-14.365zm-14.364 405.271H31.989V201.214h87.219v376.542zm337.616-410.197c-56.294 0-93.123 24.29-114.512 45.419l-2.643-27.507c-.719-7.383-6.924-12.985-14.293-12.985h-.287l-105.691 2.025a14.313 14.313 0 0 0-10.199 4.539 14.36 14.36 0 0 0-3.878 10.472c1.322 29.59 1.279 64.179 1.221 104.226l-.015 300.413c0 7.93 6.436 14.363 14.364 14.363H336.84c7.929 0 14.364-6.434 14.364-14.363v-234.28c0-11.965 1.034-20.613 3.088-25.77 7.226-18.4 31.07-37.419 58.448-37.419 35.465 0 56.623 26.976 56.623 72.181V594.16c0 7.93 6.436 14.363 14.364 14.363h113.908c7.929 0 14.364-6.434 14.364-14.363V354.164c.001-116.853-58.016-186.605-155.175-186.605zm126.447 412.238h-85.18V368.873c0-61.307-33.512-100.909-85.352-100.909-41.139 0-74.593 28.671-85.15 55.575-3.491 8.719-5.114 20.283-5.114 36.342v219.916h-87.219l.015-286.006c.043-34.015.086-64.122-.704-90.839l77.782-1.494 4.468 46.325c.718 7.369 6.909 12.985 14.307 12.985h2.441c4.956 0 9.553-2.542 12.182-6.751 8.475-13.545 41.526-57.729 111.092-57.729 80.368 0 126.448 57.542 126.448 157.877v225.633h-.016zM80.468 3.477C33.842 3.477 0 35.609 0 79.894c0 44.256 33.167 76.374 78.859 76.374 47.1 0 81.287-32.118 81.287-76.719-1.048-44.787-33.813-76.072-79.678-76.072zM78.859 127.54c-29.519 0-50.131-19.593-50.131-47.646 0-28.527 20.799-47.689 51.74-47.689 30.265 0 50.274 18.846 50.95 47.689 0 28.499-21.13 47.646-52.559 47.646z" id="linkedin"/></svg>