<svg id="Layer_1" xmlns="http://www.w3.org/2000/svg" viewBox="0 0 162 36"><style>.st0{fill:#80c249}.st1{fill:#fff}.st2{fill:#929497}</style><path class="st0" d="M44.6 13.1c-.1-.7-.5-1.3-1.3-1.6-2.8-1.3-5.8-2.7-8.9-4.2-2.5-1.2-5-2.4-7.6-3.6-.6-.3-1.2-.3-1.7 0l-.8.4C20.7 6 16.8 7.9 12.9 9.8c-1.5.7-3 1.4-4.4 2h-.1c-.4.2-1.3.6-1.2 1.5.1.5.6.9 1 1.1 1.8.8 3.7 1.6 5.8 2.6h.1c0 1.5.1 3.8.3 5.1.1.9.2 1.9.3 2.9.1.7.5 1.3 1.2 1.6 1.4.6 2.8 1.3 4.1 1.9 1 .5 1.9.9 2.8 1.3l2.4 1.2c.2.1.4.1.6.1.2 0 .4 0 .6-.1 1.5-.6 3-1.2 4.4-1.8l1.6-.7L36 27c.9-.4 1.4-1 1.5-1.9.3-1.8.6-4.6.6-6.3 0-.8.1-1.7.1-2.5 0-.3 0-1.1-.7-1.6-.7-.4-1.5-.1-1.8 0l-2.4.9c-2.5.9-5 1.9-7.3 2.7-.2.1-.3.1-.4 0-.4-.2-.5-.2-.5-.2l-.2-.1-2.3-.9c-1.3-.5-1.9.3-2.1.6-.3.5-.2.8-.1 1.1.2.4.5.7 1.1 1l1.3.5c.9.4.9.4 2 .8l.2.1c.5.2 1 .2 1.5 0 1.5-.5 3.1-1.1 4.6-1.6l2.1-.8c.6-.2 1.2-.4 1.8-.7v.2c-.1 1.6-.3 4.3-.5 6.2-3 1.2-6 2.4-8.8 3.5h-.1c-.8-.4-1.6-.7-2.5-1.1l-1.5-.7c-1.3-.6-2.8-1.2-4.4-1.9-.2-2.3-.4-5.6-.4-7.3v-.5c0-1.3-.2-1.5-1.4-2.1l-.8-.4c-1-.5-1.9-.9-2.8-1.3l.6-.3C16 10.8 19.6 9 23.1 7.3l2.9-.8c2.3 1 4.6 2.1 7.2 3.3l.5.2c2.6 1.2 5.3 2.4 7.9 3.6.1 1.8.1 3.7-.1 5.4v.5l-.1 1.3c0 .5.2 1 .6 1.2.4.2.8.3 1.3.1.5-.2 1-.6 1.1-1.5.3-3 .4-4.1.2-7.5z"/><path class="st1" d="M63.3 11.5v-.8c0-.5.3-.7.7-.7h1.8c.6 0 .8.2.8.8V24c0 4.8-3.8 8.5-8.3 8.5-1.8 0-3.5-.6-4.8-1.7-.5-.3-.7-.6-.7-.8 0-.2.1-.3.2-.5l1.1-1.2c.2-.2.4-.3.6-.3.2 0 .3.1.4.2.9.8 2 1.2 3.2 1.2 2.9 0 4.8-2.5 4.8-4.5V24c-1.3 1.1-2.9 1.7-4.5 1.7-4.4 0-8-3.6-8-8s3.6-8 8-8c1.7.1 3.3.7 4.7 1.8zm-4.8 1.7c-2.5 0-4.5 2-4.5 4.5s2 4.6 4.5 4.6 4.5-2 4.5-4.6-1.9-4.5-4.5-4.5zM75.4 9.8c4.3 0 7.9 3.5 7.9 7.9 0 4.5-3.5 8-7.9 8s-8-3.5-8-8c0-4.3 3.5-7.9 8-7.9zm-.1 3.4c-2.5 0-4.5 2-4.5 4.5s2 4.5 4.5 4.5 4.5-2 4.5-4.5c.1-2.5-1.9-4.5-4.5-4.5zM92.1 9.8c4.3 0 7.9 3.5 7.9 7.9 0 4.5-3.5 8-7.9 8s-8-3.5-8-8c-.1-4.3 3.4-7.9 8-7.9zm-.2 3.4c-2.5 0-4.5 2-4.5 4.5s2 4.5 4.5 4.5 4.5-2 4.5-4.5c.1-2.5-1.9-4.5-4.5-4.5zM100.6 17.7c0-4.3 3.6-8 8-8 1.7 0 3.2.6 4.5 1.7V4.6c0-.5.2-.8.8-.8h1.9c.5 0 .8.2.8.8v20.1c0 .5-.2.7-.8.7H114c-.5 0-.8-.2-.8-.7v-.9c-1.4 1.2-3 1.8-4.7 1.8-4.3.1-7.9-3.5-7.9-7.9zm12.5 0c0-2.6-2-4.6-4.6-4.6-2.5 0-4.5 2-4.5 4.6s2 4.6 4.5 4.6 4.6-2 4.6-4.6z"/><g><path class="st2" d="M120.7 8.7h-1.9c-.5 0-.8.2-.8.8v18.6c0 .6-.4 1-.8 1h-.3c-.5 0-.7.2-.7.7v1.9c0 .5.2.7.7.7h1.3c1.7 0 3.3-1.2 3.3-3.4V9.5c-.1-.6-.3-.8-.8-.8zM130.6 9.8c-4.6 0-8 3.6-8 8s3.5 8 8 8c4.4 0 7.9-3.5 7.9-8-.1-4.5-3.7-8-7.9-8zm-.1 12.4c-2.5 0-4.5-2-4.5-4.5s2-4.5 4.5-4.5c2.6 0 4.5 2 4.5 4.5s-2 4.5-4.5 4.5zM147.3 9.8c-1.7 0-3.2.6-4.5 1.7V4.6c0-.5-.2-.8-.7-.8h-1.9c-.5 0-.8.2-.8.8v20.1c0 .5.2.7.8.7h1.7c.5 0 .8-.2.8-.6V24c1.4 1.1 3 1.7 4.7 1.7 4.4 0 8-3.6 8-8-.1-4.3-3.7-7.9-8.1-7.9zm.1 12.5c-2.5 0-4.5-2-4.5-4.6s2-4.6 4.5-4.6c2.6 0 4.6 2 4.6 4.6s-2.1 4.6-4.6 4.6zM120.9 3.8h-2.3c-.3 0-.6.3-.6.6v2.3c0 .3.3.6.6.6h2.3c.3 0 .6-.3.6-.6V4.4c-.1-.3-.3-.6-.6-.6z"/></g></svg>