<svg id="Layer_1" xmlns="http://www.w3.org/2000/svg" viewBox="0 0 150 39.3"><style>.st0{fill:#80c249}.st1{fill:#404347}.st2{fill:#929497}</style><path class="st0" d="M41.9 15.2c0-.7-.4-1.1-1.1-1.5-2.6-1.2-5.3-2.4-8.1-3.8-2.2-1.1-4.5-2.2-6.9-3.3-.5-.2-1.1-.2-1.6 0l-.7.4c-3.4 1.7-6.8 3.5-10.4 5.2-1.4.7-2.7 1.3-4 1.9H9c-.3.1-1.2.5-1.1 1.3.1.5.6.8.9 1 1.5.7 3.3 1.5 5.2 2.3h.1c0 1.3.1 3.5.3 4.7l.3 2.7c.1.7.5 1.2 1.1 1.5 1.3.6 2.5 1.2 3.8 1.7.9.4 1.7.8 2.6 1.2.8.4 1.5.7 2.2 1 .2.1.4.1.6.1.2 0 .4 0 .5-.1 1.4-.5 2.8-1.1 4-1.6l1.4-.6c1.1-.5 2.2-.9 3.3-1.4.8-.3 1.3-.9 1.4-1.7.3-1.7.5-4.2.6-5.7 0-.8.1-1.5.1-2.3 0-.3 0-1-.6-1.4-.6-.4-1.4-.1-1.6 0-.7.3-1.5.5-2.2.8-2.2.8-4.6 1.7-6.6 2.5-.2.1-.2.1-.4 0-.4-.2-.4-.2-.5-.2l-.2-.1-2-.8c-1.2-.5-1.8.3-1.9.6-.2.4-.2.8-.1 1 .1.4.5.7 1 .9l1.2.5c.8.3.8.3 1.8.8l.2.1c.4.2.9.2 1.4 0l4.2-1.5 1.9-.7c.6-.2 1.1-.4 1.7-.6v.2c0 1.5-.2 3.9-.5 5.6-2.7 1.1-5.5 2.2-8 3.2H25c-.7-.3-1.5-.7-2.2-1l-1.4-.6c-1.2-.5-2.6-1.1-4-1.8-.2-2.1-.4-5.1-.4-6.7v-.4c0-1.2-.2-1.4-1.2-1.9l-.7-.3c-.9-.4-1.7-.8-2.5-1.2.2-.1.4-.2.5-.2 3.3-1.5 6.6-3.1 9.7-4.6L25 9.2c2.1.9 4.2 1.9 6.5 3l.4.2 7.2 3.3c.1 1.7.1 3.3 0 4.9v.5l-.1 1.2c0 .5.1.9.5 1.1.3.2.8.2 1.2.1.4-.2.9-.5 1-1.4.3-2.8.4-3.8.2-6.9z"/><path class="st1" d="M58.9 13.8V13c0-.4.3-.6.7-.6h1.6c.5 0 .7.2.7.7v12c0 4.4-3.4 7.7-7.6 7.7-1.6 0-3.1-.6-4.3-1.5-.4-.3-.6-.5-.6-.7 0-.2.1-.3.2-.5l1-1.1c.2-.2.4-.3.5-.3.2 0 .3.1.4.1.8.7 1.8 1.1 2.9 1.1 2.6 0 4.4-2.3 4.4-4.1V25c-1.2 1-2.6 1.5-4.1 1.5-4 0-7.3-3.3-7.3-7.2s3.3-7.2 7.3-7.2c1.5.1 2.9.7 4.2 1.7zm-4.3 1.5c-2.2 0-4.1 1.8-4.1 4.1s1.8 4.1 4.1 4.1 4.1-1.8 4.1-4.1-1.8-4.1-4.1-4.1zM70 12.2c3.9 0 7.1 3.2 7.1 7.2 0 4.1-3.2 7.3-7.2 7.3s-7.3-3.2-7.3-7.2c.1-4 3.2-7.3 7.4-7.3zm-.1 3.1c-2.2 0-4.1 1.8-4.1 4.1s1.8 4.1 4.1 4.1c2.2 0 4.1-1.8 4.1-4.1 0-2.2-1.8-4.1-4.1-4.1zM85.1 12.2c3.9 0 7.1 3.2 7.1 7.2 0 4.1-3.2 7.3-7.2 7.3s-7.3-3.2-7.3-7.2c.1-4 3.2-7.3 7.4-7.3zm-.1 3.1c-2.2 0-4.1 1.8-4.1 4.1s1.8 4.1 4.1 4.1c2.2 0 4.1-1.8 4.1-4.1 0-2.2-1.8-4.1-4.1-4.1zM92.8 19.4c0-3.9 3.3-7.2 7.2-7.2 1.5 0 2.9.5 4.1 1.6V7.5c0-.5.2-.7.7-.7h1.7c.5 0 .7.2.7.7v18.2c0 .4-.2.7-.7.7H105c-.5 0-.7-.2-.7-.6V25c-1.3 1.1-2.7 1.7-4.3 1.7-3.9 0-7.2-3.3-7.2-7.3zm11.4 0c0-2.3-1.8-4.1-4.1-4.1S96 17.1 96 19.4s1.8 4.1 4.1 4.1c2.2.1 4.1-1.8 4.1-4.1z"/><g><path class="st2" d="M111.1 11.2h-1.7c-.5 0-.7.2-.7.7v17c0 .5-.3.9-.8.9h-.3c-.4 0-.6.2-.6.6v1.8c0 .4.2.7.6.7h1.1c1.6 0 3-1.1 3-3.1V11.9c.1-.5-.1-.7-.6-.7zM120.1 12.2c-4.1 0-7.3 3.3-7.3 7.2 0 4 3.2 7.2 7.3 7.2 4 0 7.2-3.2 7.2-7.3 0-3.9-3.3-7.1-7.2-7.1zm0 11.3c-2.3 0-4.1-1.8-4.1-4.1 0-2.2 1.8-4.1 4.1-4.1s4.1 1.8 4.1 4.1c-.1 2.3-1.9 4.1-4.1 4.1zM135.4 12.2c-1.5 0-2.9.5-4.1 1.6V7.5c0-.5-.2-.7-.7-.7h-1.7c-.5 0-.7.2-.7.7v18.3c0 .4.2.7.7.7h1.6c.5 0 .7-.2.7-.6v-.8c1.3 1 2.7 1.6 4.3 1.6 4 0 7.2-3.3 7.2-7.2-.1-4-3.3-7.3-7.3-7.3zm0 11.4c-2.3 0-4.1-1.8-4.1-4.1s1.8-4.1 4.1-4.1c2.4 0 4.1 1.8 4.1 4.1s-1.8 4.1-4.1 4.1zM111.3 6.8h-2.1c-.3 0-.5.2-.5.5v2.1c0 .3.2.5.5.5h2.1c.3 0 .5-.2.5-.5V7.3c0-.3-.2-.5-.5-.5z"/></g></svg>