<svg id="Layer_1" xmlns="http://www.w3.org/2000/svg" viewBox="0 0 100 100"><style>.st0{fill:#fff}</style><path class="st0" d="M50.1 2.4C23.7 2.4 2.2 23.9 2.2 50.3s21.5 47.9 47.9 47.9S98 76.7 98 50.3 76.5 2.4 50.1 2.4zm0 92.1C25.8 94.5 6 74.7 6 50.3S25.8 6.2 50.1 6.2 94.2 26 94.2 50.3 74.4 94.5 50.1 94.5z"/><path class="st0" d="M36.8 40.6h5.8V35c0-2.5.1-6.3 1.9-8.7 1.9-2.5 4.5-4.2 9-4.2 7.3 0 10.4 1 10.4 1l-1.5 8.6S60 31 57.7 31c-2.3 0-4.3.8-4.3 3.1v6.5h9.3l-.6 8.4h-8.6v29.1H42.6V48.9h-5.8v-8.3z"/></svg>