<svg id="Layer_1" xmlns="http://www.w3.org/2000/svg" viewBox="0 0 100 100"><style>.st0{fill:#fff}</style><path class="st0" d="M50.1 2.4C23.7 2.4 2.2 23.9 2.2 50.3s21.5 47.9 47.9 47.9S98 76.7 98 50.3 76.5 2.4 50.1 2.4zm0 92.1C25.8 94.5 6 74.7 6 50.3S25.8 6.2 50.1 6.2 94.2 26 94.2 50.3 74.4 94.5 50.1 94.5z"/><path class="st0" d="M37.9 69.8H28V38.1h9.9v31.7zm-5.2-35.6c-3.7 0-6-2.4-6-5.5s2.4-5.5 6.1-5.5c3.7 0 5.9 2.4 6 5.5 0 3-2.4 5.5-6.1 5.5zm44.9 35.6H66.3V53.4c0-4.3-1.8-7.2-5.6-7.2-3 0-4.6 2-5.4 3.9-.3.7-.2 1.6-.2 2.6v17.1H44s.1-29 0-31.7h11.1v5c.7-2.2 4.2-5.3 9.9-5.3 7 0 12.6 4.6 12.6 14.4v17.6z"/></svg>