<svg id="Layer_1" xmlns="http://www.w3.org/2000/svg" viewBox="0 0 100 100"><style>.st0{fill:#fff}</style><path class="st0" d="M50.1 2.4C23.7 2.4 2.2 23.9 2.2 50.3s21.5 47.9 47.9 47.9S98 76.7 98 50.3 76.5 2.4 50.1 2.4zm0 92.1C25.8 94.5 6 74.7 6 50.3S25.8 6.2 50.1 6.2 94.2 26 94.2 50.3 74.4 94.5 50.1 94.5z"/><path class="st0" d="M78.5 33.1c-2 .9-4.2 1.5-6.5 1.8 2.3-1.4 4.1-3.6 5-6.2-2.2 1.3-4.6 2.2-7.2 2.7-2.1-2.2-5-3.5-8.2-3.5-6.2 0-11.3 5-11.3 11.2 0 .9.1 1.7.3 2.6-9.4-.5-17.7-4.9-23.2-11.7-1 1.7-1.5 3.6-1.5 5.7 0 3.9 2 7.3 5 9.4-1.8-.1-3.6-.6-5.1-1.4v.1c0 5.4 3.9 10 9 11-.9.3-1.9.4-3 .4-.7 0-1.4-.1-2.1-.2 1.4 4.5 5.6 7.7 10.5 7.8-3.9 3-8.7 4.8-14 4.8-.9 0-1.8-.1-2.7-.2 5 3.2 10.9 5 17.3 5 20.7 0 32.1-17.1 32.1-32v-1.5c2.2-1.6 4.1-3.6 5.6-5.8"/></svg>