<svg id="Layer_1" xmlns="http://www.w3.org/2000/svg" viewBox="0 0 100 100"><style>.st0{fill:#fff}</style><path class="st0" d="M50.1 2.4C23.7 2.4 2.2 23.9 2.2 50.3s21.5 47.9 47.9 47.9S98 76.7 98 50.3 76.5 2.4 50.1 2.4zm0 92.1C25.8 94.5 6 74.7 6 50.3S25.8 6.2 50.1 6.2 94.2 26 94.2 50.3 74.4 94.5 50.1 94.5z"/><path class="st0" d="M43.3 73.4c-6.4 0-10.9-4-10.9-8.8 0-4.7 5.7-8.7 12-8.6 1.5 0 2.9.3 4.1.7 3.4 2.4 5.9 3.7 6.6 6.5.1.6.2 1.1.2 1.7.1 4.7-3.1 8.5-12 8.5M45 45.2c-4.3-.1-8.3-4.8-9-10.3-.7-5.6 2.1-9.9 6.4-9.7 4.3.1 8.3 4.6 9 10.2.7 5.5-2.2 9.9-6.4 9.8m8.8 8.2c-1.5-1.1-4.4-3.6-4.4-5.1 0-1.8.5-2.6 3.2-4.7s4.7-5.1 4.7-8.6c0-4.2-1.9-8.2-5.3-9.5h5.2l3.7-2.7H44.4C37 22.7 30 28.4 30 34.8c0 6.6 5.1 12 12.6 12h1.5c-.5.9-.8 2-.8 3.1 0 1.8 1 3.3 2.3 4.6h-2.9c-9.2 0-16.3 5.8-16.3 11.9 0 6 7.8 9.7 16.9 9.7 10.5 0 16.3-5.9 16.3-11.9 0-4.8-1.4-7.7-5.8-10.8m24.1-7.8h-6.4v-6.4h-5.2v6.4h-6.4v5.2h6.4v6.4h5.2v-6.4h6.4v-5.2z"/></svg>