<svg id="Layer_1" xmlns="http://www.w3.org/2000/svg" viewBox="0 0 100 100"><style>.st0{fill:#fff}</style><path class="st0" d="M50.1 2.4C23.7 2.4 2.2 23.9 2.2 50.3s21.5 47.9 47.9 47.9S98 76.7 98 50.3 76.5 2.4 50.1 2.4zm0 92.1C25.8 94.5 6 74.7 6 50.3S25.8 6.2 50.1 6.2 94.2 26 94.2 50.3 74.4 94.5 50.1 94.5z"/><path class="st0" d="M62.2 28.6v10.7c-.3.3-.6.6-.9.8-.3.2-.6.3-.8.3-.3 0-.5-.1-.6-.2-.1-.2-.2-.4-.2-.7V28.6h-2.9v11.7c0 .8.2 1.5.5 1.9.3.4.9.6 1.5.6s1.1-.1 1.7-.4c.6-.3 1.1-.7 1.6-1.3v1.6H65V28.6h-2.8zm-8.8.7c-.8-.7-1.8-1-2.9-1-1.3 0-2.4.3-3.1 1-.8.6-1.2 1.5-1.2 2.6v7.3c0 1.2.4 2.1 1.1 2.9.8.7 1.8 1.1 3 1.1 1.3 0 2.4-.3 3.1-1 .8-.7 1.1-1.6 1.1-2.8v-7.3c.1-1.3-.3-2.2-1.1-2.8zm-1.8 10.1c0 .4-.1.6-.3.9-.2.2-.5.3-.9.3s-.7-.1-.9-.3c-.2-.2-.3-.5-.3-.9v-7.7c0-.3.1-.6.3-.7.2-.2.5-.3.8-.3.4 0 .7.1.9.3.2.2.3.4.3.7v7.7zm-8.9-15.8l-2 7.6h-.2l-2.1-7.6h-3.3L39 35.1v7.5h3.3v-7.9L46 23.6h-3.3zm22.5 33.6c.2.2.3.6.3 1.1v1.3h-2.2v-1.3c0-.5.1-.9.3-1.1.2-.2.5-.4.9-.4.2 0 .5.1.7.4zm-8.9-.1c-.2-.2-.5-.3-.8-.3-.2 0-.4 0-.5.1-.2.1-.4.2-.5.4v8c.2.2.4.4.6.5.2.1.4.1.6.1.3 0 .6-.1.7-.3.1-.2.2-.5.2-.9v-6.6c0-.5-.1-.8-.3-1zm0 0c-.2-.2-.5-.3-.8-.3-.2 0-.4 0-.5.1-.2.1-.4.2-.5.4v8c.2.2.4.4.6.5.2.1.4.1.6.1.3 0 .6-.1.7-.3.1-.2.2-.5.2-.9v-6.6c0-.5-.1-.8-.3-1zm14.5-9.9H30.7c-4.4 0-8 3.6-8 8v8.2c0 4.4 3.6 8 8 8h40.1c4.4 0 8-3.6 8-8v-8.2c0-4.3-3.6-8-8-8zm-29.3 5.7h-3v14.8h-2.9V52.9h-3v-2.5h8.9v2.5zm8.4 14.8h-2.6v-1.4c-.5.5-1 .9-1.5 1.2-.5.3-1 .4-1.5.4-.6 0-1-.2-1.4-.6-.3-.4-.4-.9-.4-1.7V54.9H45v9.8c0 .3.1.5.2.6.1.1.3.2.5.2s.4-.1.7-.3c.3-.2.6-.4.8-.7v-9.7h2.6v12.9zm9.3-2.7c0 .9-.2 1.6-.6 2.1-.4.5-1 .7-1.8.7-.5 0-.9-.1-1.3-.3-.4-.2-.8-.5-1.1-.9v1h-2.6V50.3h2.6v5.6c.3-.4.7-.7 1.1-.9.4-.2.8-.3 1.2-.3.8 0 1.4.3 1.8.8.4.5.7 1.3.7 2.4V65zm8.9-3.4h-4.9V64c0 .7.1 1.1.2 1.4.2.3.5.4.9.4s.7-.1.9-.3c.2-.2.3-.7.3-1.4v-.6h2.7v.5c0 1.3-.3 2.3-1 3-.6.7-1.6 1-2.9 1-1.2 0-2.1-.3-2.7-1-.6-.7-1-1.7-1-2.9v-5.7c0-1.1.4-2 1.1-2.7.7-.7 1.6-1 2.8-1 1.2 0 2.1.3 2.7 1 .6.6 1 1.6 1 2.8v3.1zm-12.6-4.8c-.2 0-.4 0-.5.1-.2.1-.4.2-.5.4v8c.2.2.4.4.6.5.2.1.4.1.6.1.3 0 .6-.1.7-.3.1-.2.2-.5.2-.9v-6.6c0-.4-.1-.7-.3-1-.2-.2-.5-.3-.8-.3zm.8.3c-.2-.2-.5-.3-.8-.3-.2 0-.4 0-.5.1-.2.1-.4.2-.5.4v8c.2.2.4.4.6.5.2.1.4.1.6.1.3 0 .6-.1.7-.3.1-.2.2-.5.2-.9v-6.6c0-.5-.1-.8-.3-1zm0 0c-.2-.2-.5-.3-.8-.3-.2 0-.4 0-.5.1-.2.1-.4.2-.5.4v8c.2.2.4.4.6.5.2.1.4.1.6.1.3 0 .6-.1.7-.3.1-.2.2-.5.2-.9v-6.6c0-.5-.1-.8-.3-1z"/></svg>