<svg id="svg2" xmlns="http://www.w3.org/2000/svg" width="171.506" height="139.379" viewBox="0 0 171.506 139.379"><g id="layer1" transform="translate(-282.32 -396.307)"><path id="path5" fill="#FFF" d="M453.826 412.806a70.349 70.349 0 0 1-20.209 5.54c7.265-4.354 12.845-11.249 15.471-19.466a70.455 70.455 0 0 1-22.345 8.538 35.135 35.135 0 0 0-25.683-11.111c-19.432 0-35.187 15.754-35.187 35.186 0 2.758.311 5.443.911 8.019-29.243-1.467-55.17-15.476-72.524-36.764a35.013 35.013 0 0 0-4.765 17.688c0 12.208 6.212 22.978 15.653 29.287a35.071 35.071 0 0 1-15.938-4.4c-.004.146-.004.294-.004.442 0 17.048 12.129 31.269 28.226 34.503a35.236 35.236 0 0 1-15.89.602c4.478 13.979 17.472 24.151 32.87 24.435-12.043 9.438-27.214 15.063-43.7 15.063-2.84 0-5.641-.167-8.394-.492 15.572 9.984 34.067 15.81 53.938 15.81 64.721 0 100.113-53.615 100.113-100.114 0-1.525-.034-3.043-.102-4.553a71.449 71.449 0 0 0 17.559-18.213z"/></g></svg>