<svg id="youtube" xmlns="http://www.w3.org/2000/svg" width="612" height="612" viewBox="90 0 612 612"><path fill="#C1C1C1" d="M584.096 211.956c-3.979-21.29-21.704-37.178-42.063-39.14-48.615-3.119-97.413-5.648-146.116-5.681-48.707-.028-97.318 2.451-145.941 5.521-20.435 1.978-38.157 17.782-42.123 39.152a639.672 639.672 0 0 0-6.774 92.91 640.19 640.19 0 0 0 6.774 92.906c3.962 21.37 21.684 39.072 42.123 41.029 48.635 3.075 97.218 6.21 145.941 6.21 48.687 0 97.521-2.737 146.116-5.884 20.359-1.977 38.085-20.204 42.063-41.482a632.307 632.307 0 0 0 6.826-92.787c0-31.011-2.276-62.028-6.826-92.754zm-232.292 148.73V247.412l105.497 56.639-105.497 56.635z"/></svg>