<svg baseProfile="tiny" id="Layer_1" xmlns="http://www.w3.org/2000/svg" width="400" height="259" viewBox="0 0 400 259"><path fill="#FFF" d="M137.478 74.488h127.377v114.364H137.478z"/><path fill="#5D5E64" d="M193.982 162.307a6.65 6.65 0 0 1-1.513 1.312c-.549.342-1.008.51-1.359.51-.457 0-.793-.122-1.004-.389-.196-.26-.301-.676-.301-1.25v-18.723h-4.876v20.403c0 1.459.29 2.542.856 3.272.576.729 1.417 1.089 2.548 1.089.917 0 1.86-.249 2.833-.779.978-.507 1.911-1.265 2.817-2.254v2.673h4.876v-24.404h-4.876v18.537h-.001v.003zm17.817-18.832c-.758 0-1.506.19-2.254.582-.727.385-1.428.953-2.088 1.693v-10.654h-4.934v33.077h4.934v-1.871c.637.755 1.34 1.3 2.085 1.655.742.355 1.593.529 2.552.529 1.442 0 2.557-.457 3.314-1.377.767-.926 1.146-2.25 1.146-3.975v-13.542c0-2.001-.404-3.522-1.226-4.563-.808-1.04-1.986-1.554-3.529-1.554zm-.27 18.988c0 .779-.146 1.334-.422 1.68-.28.353-.719.521-1.316.521-.415 0-.801-.094-1.18-.262-.373-.172-.762-.473-1.154-.868v-15.203c.328-.331.666-.589 1.006-.746a2.411 2.411 0 0 1 1.033-.233c.656 0 1.161.211 1.521.635.342.425.51 1.048.51 1.875v12.603l.002-.002zm-11.852-46.036c.744 0 1.335-.203 1.772-.615.439-.413.66-.981.66-1.7V99.465c0-.585-.226-1.056-.67-1.425-.449-.362-1.035-.538-1.762-.538-.67 0-1.211.175-1.637.538-.413.37-.623.84-.623 1.425v14.647c0 .737.196 1.303.583 1.708.392.412.951.607 1.677.607zm-33.763 23.479h5.687v28.267h5.496v-28.267h5.689v-4.811h-16.872v4.811zm46.246-46.381h5.482v20.611c0 .633.127 1.091.354 1.373.224.292.603.432 1.116.432.402 0 .916-.188 1.537-.565a7.47 7.47 0 0 0 1.687-1.444V93.525h5.494v26.881h-5.494v-2.976c-1.002 1.095-2.06 1.934-3.16 2.509-1.091.565-2.153.859-3.184.859-1.275 0-2.226-.407-2.872-1.212-.641-.794-.962-1.991-.962-3.594l.002-22.467zm-20.393 6.145c0-2.09.739-3.742 2.215-4.975 1.476-1.233 3.467-1.85 5.96-1.85 2.275 0 4.137.652 5.593 1.947 1.443 1.299 2.169 2.986 2.169 5.031v13.887c0 2.3-.71 4.095-2.128 5.411-1.432 1.31-3.387 1.963-5.885 1.963-2.401 0-4.327-.678-5.77-2.03-1.437-1.354-2.16-3.166-2.16-5.451V99.67h.006zm-14.962-15.707l4.016 14.567h.39l3.825-14.567h6.282l-7.196 21.325v15.118h-6.182v-14.438l-7.361-22.005h6.226zm71.931 76.696c0 9.725-7.887 17.612-17.612 17.612h-61.195c-9.728 0-17.613-7.889-17.613-17.612v-14.157c0-9.725 7.885-17.619 17.613-17.619h61.195c9.726 0 17.612 7.895 17.612 17.619v14.157zm-22.211-17.493c-2.188 0-3.963.662-5.34 1.991-1.383 1.332-2.074 3.067-2.074 5.174v10.963c0 2.354.636 4.205 1.885 5.534 1.252 1.34 2.977 2.011 5.163 2.011 2.431 0 4.258-.629 5.472-1.887 1.234-1.271 1.842-3.157 1.842-5.659v-1.252h-5.02v1.111c0 1.438-.168 2.358-.484 2.787-.324.418-.887.629-1.697.629-.778 0-1.33-.241-1.652-.742-.321-.502-.475-1.391-.475-2.674v-4.6h9.328v-6.224c0-2.31-.601-4.083-1.799-5.317-1.199-1.232-2.915-1.845-5.149-1.845zm1.928 9.595h-4.309v-2.465c0-1.024.157-1.759.502-2.188.336-.453.891-.674 1.67-.674.744 0 1.295.221 1.623.674.338.431.514 1.164.514 2.188v2.465z"/></svg>